<?xml version="1.0" encoding="UTF-8"?><svg id="Layer_2" xmlns="http://www.w3.org/2000/svg" viewBox="0 0 257.87 64.15"><defs><style>.cls-1{fill:#040404;}</style></defs><g id="_레이어_1"><g><g><path class="cls-1" d="M65.73,.66h9.53V51.87h-9.53V.66Z"/><path class="cls-1" d="M123.62,42.55c0,4.04,.42,7.1,1.25,9.19h-9.61c-.33-.48-.57-1.08-.71-1.79-.13-.72-.24-1.38-.29-1.99-1.79,1.39-4,2.47-6.64,3.23-2.65,.76-5.19,1.14-7.64,1.14-2.12,0-4.05-.25-5.81-.75-1.75-.5-3.25-1.21-4.46-2.12-2.62-1.82-3.93-4.3-3.93-7.42,0-1.83,.43-3.41,1.29-4.76,.87-1.35,2.02-2.5,3.47-3.45,1.39-.96,3.04-1.73,4.93-2.31,1.89-.59,3.87-1.05,5.93-1.4,2.06-.35,4.16-.57,6.3-.69,2.14-.11,4.16-.18,6.06-.23v-2.21c0-2.21-.66-3.81-1.97-4.79-1.3-.98-3.37-1.47-6.22-1.47-2.12,0-4.17,.33-6.18,.98-2,.65-4.07,1.68-6.19,3.06l-5.01-5.14c5.07-3.69,11.06-5.54,17.96-5.54,11.64,0,17.46,4.24,17.46,12.71v15.77Zm-21.89,3.32c2.18,0,4.36-.34,6.56-1.01,2.2-.67,4.02-1.77,5.47-3.29v-6.78c-6.41,0-10.99,.59-13.75,1.76-2.75,1.18-4.14,2.94-4.14,5.28,0,1.39,.62,2.41,1.84,3.06,1.23,.65,2.57,.98,4.01,.98Z"/><path class="cls-1" d="M156.54,51.74h-8.86l-18.37-36.56h10.69l12.12,27.04,12.03-26.84h10.78l-18.37,36.36Z"/><path class="cls-1" d="M194.46,0V8.93h-10.02V0h10.02Zm0,14.99V51.67h-10.02V14.99h10.02Z"/></g><path class="cls-1" d="M56.49,7.92l-5.47,7.19s-15.3-9.4-28.63-1.04c0,0-16.23,9.28-8.11,29.51,0,0,3.97,12.3,23.8,12.3H230.08s15.34,.25,16.18-8.33c0,0-.32-5.29-10.31-8.67,0,0-17.75-5.34-24.02-10.21,0,0-8.39-5-4.51-14.4,0,0,3.37-9.21,20.91-10.79,0,0,12.66-1.79,25.82,5.43l-5.58,6.58s-10.69-5.53-20.23-3.93c0,0-9.98,1.28-10.55,6.92,0,0-1.25,4.85,14.19,9.46,0,0,15.49,4.85,19.49,8.55,0,0,8.43,4.82,5.95,14.37,0,0-1.65,9.51-17.01,12.34,0,0-5.84,.95-11.76,.95H33.54s-17.5,.08-27.05-12.5c0,0-11.26-12.79-4.12-29.46,0,0,6.37-17.65,30.37-19.32,0,0,13.36-.8,23.74,5.05Z"/></g></g></svg>